<svg width="155" height="61" viewBox="0 0 155 61" fill="none" xmlns="http://www.w3.org/2000/svg">
<g clip-path="url(#clip0_1_7)">
<path d="M33.5578 43.6228C33.5578 43.6228 40.0504 44.3721 40.117 44.6531C40.1836 44.9341 34.5345 47.2084 34.5345 47.2084L30.4244 46.3467L33.5578 43.6228Z" fill="#F13B13"/>
<path d="M141.848 41.4347L147.701 47.6093C147.701 47.6093 139.488 46.0319 139.351 45.9233C139.214 45.8146 134.464 41.18 134.464 41.18L141.848 41.4347Z" fill="#EF3B24"/>
<path d="M36.9761 47.5606L33.5504 43.6266L64.3965 16.0808L62.6948 28.8945L90.1152 0L107.447 17.9354V7.96173L141.9 41.461L138.315 45.2414L112.626 20.2696V30.7941L90.1485 7.53461L55.4475 44.0986L57.4119 29.3104L36.9761 47.5606Z" fill="#F13B13"/>
<path d="M89.5677 7.13745V16.9875L84.1368 27.3734L88.5503 32.6187L86.5119 46.8562L110.285 33.3681L105.19 32.6187L112.253 24.7507L89.5677 7.13745Z" fill="#F13B13"/>
<path d="M2.34913 34.4059C1.06911 37.3583 1.33177 39.4677 4.43932 40.7978C7.76884 42.2215 11.3906 42.6712 15.0753 43.1395C21.701 43.8364 28.4118 44.5857 35.1004 44.6869C41.8432 44.7638 48.585 44.4673 55.2958 43.7989C62.0288 43.1732 68.7286 42.1166 75.4024 40.8652C75.4509 40.8564 75.5009 40.8671 75.5417 40.8951C75.5824 40.9232 75.6108 40.9662 75.6206 41.0151C75.6286 41.0616 75.6189 41.1095 75.5935 41.1491C75.5682 41.1887 75.5289 41.2171 75.4838 41.2287C68.9147 43.0585 62.2551 44.5368 55.5326 45.6573C48.7853 46.7648 41.976 47.4418 35.1448 47.6842C24.7864 47.9615 14.0579 48.3511 4.43932 43.649C1.80161 42.2328 -0.714028 39.7525 0.599281 36.4928C0.9392 35.6472 1.42667 34.8705 2.03837 34.1999C2.06877 34.1673 2.10952 34.1465 2.15349 34.1413C2.19746 34.1361 2.24185 34.1466 2.27889 34.1712C2.31593 34.1958 2.34326 34.2327 2.3561 34.2756C2.36894 34.3186 2.36647 34.3647 2.34913 34.4059Z" fill="#AAB624"/>
<path d="M0.369993 45.1664C7.79111 51.9779 16.9399 57.1559 26.9099 58.3736C33.569 59.1004 40.1799 57.9427 46.7427 56.7887C63.4717 53.8288 79.7493 49.5576 96.3155 45.706C103.012 44.286 109.634 42.6674 116.455 42.0042C123.366 41.3186 130.354 41.2849 137.232 42.3789C139.007 42.6471 140.754 43.0849 142.448 43.6865C147.442 45.5061 151.804 48.7612 155 53.0532L154.63 53.4279C145.777 45.8521 137.946 45.5299 126.958 46.1781C120.352 46.6405 113.787 47.5745 107.31 48.9731C103.981 49.6325 100.581 50.2694 97.2515 50.8464C83.9667 53.0045 70.645 56.2229 57.2973 58.3061C50.5458 59.3514 43.8461 60.4979 37.0021 60.9288C33.537 61.1695 30.0564 61.0288 26.6214 60.5092C16.3813 58.7482 7.1807 53.0158 0.00744629 45.5786L0.377392 45.2039L0.369993 45.1664Z" fill="#AAB624"/>
<path d="M30.2912 16.9838L30.0729 16.2719C29.9522 15.9013 29.7142 15.5814 29.3959 15.3615L29.1962 15.2191C28.9515 15.0471 28.6676 14.9413 28.3712 14.9119L27.8052 14.8557C27.4014 14.8139 26.9959 14.9159 26.6583 15.1441C26.3563 15.3477 26.1237 15.6409 25.9924 15.9834L25.8186 16.4443C25.7937 16.5078 25.7727 16.5729 25.7557 16.6391L25.1971 18.8309C25.149 19.0257 25.0898 19.2056 25.0232 19.4079L24.2833 21.5023C24.1216 21.9673 24.0088 22.4483 23.9466 22.9373L23.9059 23.2408C23.784 24.205 23.8582 25.1842 24.1242 26.1182C24.0478 26.4016 24.0288 26.6977 24.0682 26.9887C24.1076 27.2797 24.2047 27.5597 24.3536 27.8117L24.3758 27.8455L24.6458 28.3513C24.8494 28.7226 25.1554 29.026 25.5263 29.2242C25.9538 29.4535 26.4448 29.5313 26.921 29.4453L27.4611 29.3441C27.6058 29.3178 27.755 29.348 27.8786 29.4286C28.0022 29.5093 28.091 29.6344 28.127 29.7788V29.8424C28.1324 29.8897 28.1324 29.9375 28.127 29.9848V30.1384C28.126 30.2089 28.1386 30.2789 28.164 30.3445C28.302 30.7189 28.3624 31.1181 28.3416 31.5172L28.1899 35.485C28.1744 35.828 28.0711 36.1611 27.8903 36.4516C27.7999 36.599 27.729 36.7577 27.6794 36.9237C27.5573 37.2984 27.3427 38.0477 27.3427 38.0889C27.3427 38.1301 27.3649 38.7034 27.3834 39.2841C27.413 40.0934 27.4759 40.9027 27.5795 41.7082L27.8311 43.7052C27.8329 43.7352 27.8329 43.7652 27.8311 43.7952V44.4134C27.831 44.6307 27.9055 44.8413 28.0419 45.0091C28.1713 45.166 28.3481 45.2753 28.5451 45.3201L29.8991 45.631C29.9995 45.6478 30.102 45.6478 30.2024 45.631L31.882 45.44C32.0005 45.4278 32.1137 45.3844 32.2104 45.314C32.3072 45.2437 32.384 45.1489 32.4332 45.0391L32.5775 44.7206C32.6343 44.5993 32.655 44.4639 32.6373 44.3309C32.6196 44.1979 32.5641 44.0729 32.4776 43.9712C32.4124 43.8949 32.3317 43.8336 32.2411 43.7916C32.1504 43.7496 32.0519 43.7278 31.9523 43.7277H30.9682C30.804 43.7271 30.6453 43.6673 30.5206 43.5591L30.2505 43.3268C30.1764 43.2618 30.117 43.1813 30.0766 43.0908L29.8991 42.7161C29.6794 42.2407 29.5973 41.7119 29.6623 41.1912L30.0729 37.7967C30.1171 37.4374 30.277 37.1029 30.528 36.845C30.7579 36.6154 30.9129 36.3199 30.9719 35.9983L31.1273 35.159L32.4406 31.9968L34.6603 32.7461C34.6603 32.7461 34.1497 33.99 34.1239 34.095C34.098 34.1999 33.9204 38.5123 33.9204 38.5123V40.4643C33.9203 40.5283 33.9327 40.5917 33.9568 40.6509C33.9809 40.71 34.0163 40.7637 34.061 40.809C34.1307 40.879 34.2197 40.926 34.3162 40.9439L34.5123 40.9814C35.1407 41.0985 35.7896 41.0065 36.362 40.7191C36.4286 40.685 36.502 40.6671 36.5766 40.6667H37.4497L38.2155 40.603C38.281 40.5954 38.3433 40.5702 38.396 40.53C38.4487 40.4898 38.4898 40.4361 38.5151 40.3744L38.6298 40.0597C38.6488 40.0154 38.6587 39.9675 38.6587 39.9192C38.6587 39.8708 38.6488 39.823 38.6298 39.7787C38.601 39.7202 38.5566 39.671 38.5017 39.6366C38.4468 39.6022 38.3836 39.5839 38.319 39.5839H37.9491C37.7355 39.5853 37.5243 39.5379 37.3313 39.4452L37.0871 39.3328C36.7443 39.1723 36.4653 38.8989 36.2954 38.5573C36.1452 38.2513 36.0984 37.9037 36.1623 37.5681L36.7209 34.6719L37.4608 32.0717C37.5254 31.867 37.5254 31.647 37.4608 31.4423L37.3387 31.0676C37.2684 30.8642 37.1395 30.6867 36.9687 30.5581L35.489 29.4341L34.1017 28.355C34.0873 28.3434 34.0758 28.3285 34.0681 28.3116C34.0604 28.2947 34.0567 28.2762 34.0573 28.2576L34.0795 27.9766C34.0832 27.9407 34.0741 27.9047 34.0537 27.8751C34.0333 27.8455 34.003 27.8243 33.9685 27.8155L33.2286 27.6057V27.3097C33.228 27.2688 33.2384 27.2286 33.2587 27.1932C33.279 27.1579 33.3084 27.1289 33.3438 27.1092C33.3792 27.0896 33.4192 27.0801 33.4595 27.0817C33.4998 27.0834 33.5389 27.0961 33.5726 27.1186C33.603 27.1386 33.6375 27.1511 33.6736 27.155C33.7096 27.1589 33.746 27.1542 33.7798 27.1411L34.3791 26.8975C34.4136 26.8827 34.4441 26.8596 34.468 26.8302C34.4918 26.8009 34.5083 26.7661 34.516 26.7289L34.6455 26.0021C34.6538 25.9584 34.6744 25.9181 34.7047 25.8859C34.8566 25.7309 34.9817 25.551 35.0746 25.3539C35.0746 25.234 35.0302 24.687 35.0302 24.687L36.8097 24.1999C37.0109 24.144 37.1959 24.04 37.3491 23.8965C37.5024 23.7531 37.6193 23.5744 37.6901 23.3756L37.79 23.1021L38.4485 22.7724L38.6927 22.5813L41.3452 40.6592H41.4562L38.9812 22.4315C38.9768 22.4208 38.9745 22.4093 38.9745 22.3978C38.9745 22.3862 38.9768 22.3747 38.9812 22.364C38.9892 22.3546 38.9992 22.3469 39.0103 22.3417C39.0215 22.3365 39.0337 22.3338 39.046 22.3338C39.0583 22.3338 39.0705 22.3365 39.0816 22.3417C39.0928 22.3469 39.1027 22.3546 39.1107 22.364L39.1551 22.4202C39.1822 22.452 39.2157 22.4774 39.2534 22.4949C39.291 22.5124 39.332 22.5214 39.3734 22.5214H39.5214C39.5767 22.5225 39.631 22.5067 39.6772 22.4759C39.7235 22.4451 39.7594 22.4009 39.7803 22.3491C39.7987 22.308 39.8064 22.2628 39.8025 22.2179L39.7951 21.7308C39.6806 21.368 39.4647 21.0466 39.1736 20.8054L38.9553 20.6218L38.7556 20.5544C38.7525 20.5519 38.75 20.5488 38.7483 20.5452C38.7466 20.5417 38.7457 20.5377 38.7457 20.5338C38.7457 20.5298 38.7466 20.5259 38.7483 20.5223C38.75 20.5188 38.7525 20.5156 38.7556 20.5132L38.8592 20.397C38.874 20.3805 38.8851 20.3608 38.8915 20.3394C38.8979 20.3181 38.8995 20.2955 38.8962 20.2734V20.2209C38.8906 20.1792 38.8695 20.1412 38.8372 20.1147C38.8048 20.0882 38.7637 20.0753 38.7223 20.0786L38.3116 20.1048C38.2838 20.1059 38.2569 20.115 38.234 20.131L37.9454 20.3258C37.9019 20.3552 37.8677 20.3966 37.8467 20.4451C37.8258 20.4935 37.8189 20.5471 37.827 20.5993V20.6331C37.8348 20.6654 37.846 20.6968 37.8603 20.7267L38.012 20.9965L37.5828 22.1467C37.4444 22.0579 37.2786 22.0232 37.1167 22.0493L36.5285 22.1467L35.7886 22.3153C35.6476 22.346 35.5036 22.3598 35.3595 22.3565H34.8157L34.775 21.8432L35.1449 21.0115L35.0672 19.8575L36.0513 18.9508C36.0959 18.9097 36.1247 18.854 36.1327 18.7934C36.1411 18.74 36.1328 18.6852 36.1089 18.6368C36.085 18.5884 36.0468 18.5489 35.9995 18.5237L35.574 18.2951L35.6924 17.8193L35.9847 17.9579L36.6099 18.0366L36.7468 17.898L36.6099 17.5608L36.8245 17.5046L36.8836 17.351C36.8915 17.338 36.8957 17.3231 36.8957 17.3079C36.8957 17.2927 36.8915 17.2777 36.8836 17.2648C36.8753 17.2539 36.8696 17.2411 36.8671 17.2275C36.8646 17.2139 36.8654 17.1999 36.8694 17.1866C36.8734 17.1734 36.8805 17.1613 36.89 17.1515C36.8996 17.1416 36.9114 17.1342 36.9243 17.1299L37.1167 17.0737L37.1944 16.7552L37.446 16.6953L37.4682 16.5941V16.5641L37.4312 16.3019L37.3239 15.9684L37.2018 15.7024H38.0009C38.054 15.7015 38.1066 15.6914 38.1563 15.6724L38.4929 15.5376C38.5515 15.5125 38.6044 15.4755 38.6483 15.4289L38.6779 15.3952C38.7175 15.3535 38.7484 15.3041 38.7687 15.25C38.789 15.1959 38.7984 15.1383 38.7963 15.0805L38.7593 15.0355L38.0416 14.9231H37.9935L37.4978 14.7882L36.9946 14.0876L36.8541 13.8965C36.7298 13.7263 36.5692 13.5867 36.3842 13.4881C36.2967 13.4438 36.205 13.4087 36.1105 13.3832L36.0217 13.3607C35.9014 13.326 35.7768 13.3095 35.6517 13.312H35.1449C35.1268 13.3178 35.1075 13.3178 35.0894 13.312L35.0524 13.2783C35.0452 13.2708 35.0366 13.265 35.027 13.2611C35.0175 13.2573 35.0072 13.2554 34.9969 13.2558C34.963 13.2558 34.9295 13.264 34.8993 13.2796C34.8691 13.2952 34.8429 13.3179 34.823 13.3457C34.8073 13.366 34.7886 13.3837 34.7676 13.3982L34.6159 13.4993L34.3939 13.6043C34.3291 13.6333 34.2672 13.6684 34.2089 13.7092C34.0621 13.8077 33.9362 13.9351 33.839 14.0838C33.8013 14.1425 33.768 14.2038 33.7391 14.2674L33.7169 14.3086C33.654 14.4474 33.6128 14.5953 33.5948 14.747L33.5726 14.983V15.3577L33.6429 15.6874L33.7465 15.8972C33.7549 15.9164 33.7562 15.9379 33.7501 15.9579C33.744 15.9779 33.7308 15.995 33.7132 16.0059C33.6994 16.0149 33.6834 16.0197 33.667 16.0197C33.6506 16.0197 33.6345 16.0149 33.6207 16.0059L33.4801 15.9085L33.236 15.8523L33.0214 15.886L32.6663 16.1108L32.2963 16.4293L31.8339 16.8039L31.4639 17.1187C31.4397 17.1392 31.4205 17.1651 31.4077 17.1943C31.3948 17.2235 31.3888 17.2553 31.3899 17.2873V17.7331C31.3916 17.7729 31.3821 17.8124 31.3624 17.8469C31.3428 17.8814 31.3138 17.9095 31.279 17.9279C31.2507 17.9419 31.2197 17.9491 31.1883 17.9491C31.1569 17.9491 31.1259 17.9419 31.0977 17.9279L30.9238 17.8455C30.7501 17.7573 30.5993 17.629 30.4836 17.4708C30.4102 17.3613 30.3598 17.2375 30.3356 17.1074V17.0625L30.2912 16.9838Z" fill="#471B00"/>
</g>
<defs>
<clipPath id="clip0_1_7">
<rect width="155" height="61" fill="white"/>
</clipPath>
</defs>
</svg>
